<svg width="785" height="753" viewBox="0 0 785 753" fill="none" xmlns="http://www.w3.org/2000/svg">
<path d="M112.668 1.99003C84.4012 6.92337 58.8012 20.6567 38.4012 41.7234C22.4012 58.2567 13.6012 72.39 7.06789 91.99C-0.265441 113.857 0.0012257 101.723 0.0012257 379.323V636.657L2.93456 648.257C10.0012 675.59 22.0012 697.323 40.1346 715.323C56.5346 731.59 73.2012 741.323 97.6012 748.923L109.335 752.657H391.335H673.335L685.335 748.923C700.135 744.39 714.001 737.99 724.535 730.79C748.401 714.523 768.001 688.657 777.468 660.79C784.935 638.79 784.668 651.857 784.668 376.657C784.668 98.79 785.068 113.99 776.801 90.79C760.801 45.3234 714.401 8.12337 665.601 1.4567C648.935 -0.809968 125.735 -0.276634 112.668 1.99003ZM444.668 100.523C478.268 106.657 504.535 131.19 512.135 163.457C515.335 177.323 514.135 200.257 509.601 213.057C505.068 226.123 498.801 236.39 490.535 244.923C481.735 253.857 478.935 254.257 458.001 250.523C444.001 247.99 436.001 247.457 408.668 247.323C371.868 247.057 371.201 246.923 362.801 237.19C356.535 229.723 348.001 213.19 345.468 203.19C342.801 192.79 342.668 173.59 345.335 163.457C348.801 150.123 357.601 135.057 368.001 124.523C388.535 103.723 415.601 95.3234 444.668 100.523ZM238.135 180.79C249.201 183.99 269.335 194.923 282.001 204.523C295.735 214.923 319.335 238.79 327.335 250.657C332.935 258.79 333.335 259.99 333.335 268.123C333.335 282.657 337.335 285.057 354.135 281.057C375.068 276.123 386.668 274.523 405.335 273.723C428.001 272.79 443.201 274.39 472.535 280.923C497.868 286.523 498.401 286.523 505.735 275.323C514.268 262.257 516.535 259.99 520.801 259.99C526.135 259.99 544.001 269.323 556.668 278.79C568.135 287.323 586.001 305.057 594.535 316.523C609.201 336.257 618.668 355.323 626.668 381.99C629.335 390.79 632.401 399.057 633.601 400.257C636.801 403.723 644.801 403.457 648.401 399.59C652.001 395.723 653.468 391.59 654.668 382.123C657.468 359.99 680.535 360.123 684.135 382.123C685.201 388.79 681.868 401.99 677.601 408.923C671.068 419.323 659.068 428.123 646.668 431.857C632.801 436.123 633.468 435.19 630.535 451.057C626.401 472.79 614.135 500.657 600.401 519.323C596.668 524.523 586.135 535.99 577.068 544.923C568.001 553.857 560.535 561.323 560.401 561.59C560.268 561.857 559.868 577.99 559.468 597.59C558.535 637.59 558.535 637.99 547.868 643.323C543.335 645.723 539.468 645.99 515.868 646.39C475.735 647.057 473.335 645.99 466.135 622.657C457.468 594.923 459.868 596.657 431.068 598.79C416.268 599.857 399.601 599.99 378.668 599.323C337.735 597.99 339.468 597.99 337.201 600.123C336.135 601.323 333.468 608.923 331.335 617.19C323.735 645.857 323.601 645.99 282.668 645.99C248.001 645.99 244.668 645.19 239.068 636.123C236.135 631.59 236.001 629.457 235.335 601.323C234.935 584.79 234.001 570.257 233.468 568.923C232.801 567.59 228.001 563.59 222.801 560.123C211.868 552.657 195.068 537.99 187.735 529.457C184.935 526.257 177.601 516.923 171.335 508.79C160.935 495.19 159.201 493.59 150.535 489.323C145.335 486.657 134.268 482.657 125.868 480.257C112.935 476.657 110.001 475.19 106.268 471.323L101.868 466.523L102.268 422.257L102.668 377.99L105.868 373.457C110.001 367.723 117.201 364.523 130.401 362.79C141.868 361.19 149.468 358.523 152.268 354.923C153.201 353.723 155.601 349.857 157.335 346.257C170.268 321.857 194.935 292.257 220.401 270.79C225.868 266.123 228.668 262.79 228.668 260.923C228.668 259.323 225.601 243.057 222.001 224.79C218.268 206.523 215.335 190.39 215.335 189.057C215.335 187.59 217.068 184.657 219.201 182.523C223.735 177.99 227.468 177.723 238.135 180.79Z" fill="black"/>
<path d="M232.001 339.19C222.401 343.457 216.935 353.724 219.335 362.79C224.401 381.457 248.268 385.857 259.868 370.257C264.001 364.657 263.735 352.924 259.468 346.79C253.735 338.657 241.068 335.19 232.001 339.19Z" fill="black"/>
</svg>
